<?xml version="1.0"?>
<svg xmlns="http://www.w3.org/2000/svg" xmlns:xlink="http://www.w3.org/1999/xlink" version="1.1" viewBox="0 0 224 224" width="48px" height="48px"><g fill="none" fill-rule="nonzero" stroke="none" stroke-width="1" stroke-linecap="butt" stroke-linejoin="miter" stroke-miterlimit="10" stroke-dasharray="" stroke-dashoffset="0" font-family="none" font-weight="none" font-size="none" text-anchor="none" style="mix-blend-mode: normal"><path d="M0,224v-224h224v224z" fill="none"/><g id="Layer_1"><path d="M196,172.66667c0,12.88933 -10.444,23.33333 -23.33333,23.33333h-121.33333c-12.88467,0 -23.33333,-10.444 -23.33333,-23.33333v-121.33333c0,-12.88933 10.44867,-23.33333 23.33333,-23.33333h121.33333c12.88933,0 23.33333,10.444 23.33333,23.33333z" fill="#666666"/><path d="M154.14,119.46667c-3.03333,-4.2 -7.42,-7.09333 -13.06667,-8.63333c0,0 4.76,-1.72667 9.05333,-8.16667c2.56667,-4.10667 3.87333,-9.05333 3.87333,-14.84c0,-10.03333 -3.64,-17.73333 -10.92,-23.00667c-7.28,-5.27333 -15.49333,-8.82 -29.44667,-8.82h-43.63333v112h48.67333c13.20667,-0.09333 23.14667,-2.94 29.91333,-8.4c6.72,-5.55333 10.08,-13.76667 10.08,-24.73333c0,-6.06667 -1.49333,-11.2 -4.52667,-15.4zM98,74.66667c0,0 19.46,0 19.83333,0c7.09333,0 12.83333,5.74 12.83333,12.83333c0,7.09333 -5.74,12.83333 -12.83333,12.83333c-0.37333,0 -19.83333,0 -19.83333,0zM121.33333,149.33333h-23.33333v-28h23.33333c7.74667,0 14,6.25333 14,14c0,7.74667 -6.25333,14 -14,14z" fill="#ffffff"/></g></g></svg>
